<svg xmlns="http://www.w3.org/2000/svg" x="0px" y="0px" class="cement-svg" viewBox="0 0 100 100">
    <path d="M45.7,73.4c-3.8-0.4-3.9-0.4-4.4-4.3c-0.5-4-2.4-7.4-4.5-10.8c-2.3-3.7-4.5-7.4-5.3-11.7
    c-1.4-7.3,1.6-14.5,7.9-18.9c5.9-4.1,12.9-4.2,19-0.3c6.5,4.1,9.7,11.3,8.5,18.6c-0.7,4.3-2.7,8-5,11.6c-2.1,3.4-4.2,6.8-4.9,10.9
    c0,0.2-0.1,0.4-0.1,0.6c0.6,3.4-1.5,4.3-4.2,5C49.8,74.9,46.9,76,44,77c-1,0.3-2,0.6-2.4-0.6c-0.5-1.3,0.6-1.8,1.6-2.1
    C44,74,44.9,73.7,45.7,73.4z M55.7,51.3c-2.1,4.1-3,8.2-3.3,12.5c-0.1,0.8-0.2,1.9,0.9,1.9c1.1,0,0.9-1,0.9-1.7
    c0.4-4.2,1.2-8.3,3.3-12c1.3-2.4,1.2-2.6-1.5-2.6c-0.9,0-1.9,0.3-1.9-1.3c0-0.8-0.6-0.8-1.4-0.6c-1,0.2-2.3-0.4-3.1,0.1
    c-1.2,0.6-2.8-1.2-3.5,0.5c-0.6,1.3-1.4,1.4-2.6,1.3c-0.8,0-1.5,0-2.3,0c-1.5,0-1.6,0.7-1,1.8c2.4,4,3.4,8.3,3.7,12.9
    c0,0.7,0,1.8,1.1,1.6c1.1-0.1,0.8-1.1,0.8-1.8c-0.2-4-1.1-7.9-2.8-11.6c-0.1-0.3-0.6-0.6-0.1-0.9c0.3-0.2,0.9-0.2,1,0.2
    c0.1,1.5,0.7,1.3,2.1,1.4c1.6,0.1,3.5-0.6,5.1,0.3c0.4,0.2,0.8-0.2,0.9-0.5C52.6,50.7,54.1,51.2,55.7,51.3z"/>
    <path d="M54.7,74.6c1.3-0.2,1.8,0.3,2,1c0.2,0.9-0.3,1.4-1.1,1.7c-2.7,0.9-5.4,1.8-8.1,2.7c-1.4,0.5-2.7,0.9-4.1,1.4
    c-0.8,0.3-1.4-0.1-1.7-0.8c-0.3-0.7-0.2-1.5,0.6-1.8C46.5,77.3,50.8,75.9,54.7,74.6z"/>
    <path d="M54.4,80.8c-0.2,0.8-0.6,1.2-1.4,1.4c-2.5,0.8-4.9,1.6-7.4,2.5c-1,0.4-1.8,0.1-2.1-0.9c-0.3-1,0.4-1.5,1.3-1.8
    c2.5-0.8,4.9-1.7,7.4-2.5C53.4,79.2,54.2,79.5,54.4,80.8z"/>
    <path d="M44.2,18.6c0,1.1-0.2,1.6-0.9,1.8c-0.8,0.2-1.4,0-1.7-0.8c-0.7-2.1-1.4-4.2-2.1-6.3c-0.3-0.8,0.1-1.4,0.8-1.7
    c0.6-0.3,1.4-0.1,1.6,0.5C42.8,14.4,43.6,16.7,44.2,18.6z"/>
    <path d="M58.7,13.5c-0.7,1.9-1.4,4.1-2.1,6.2c-0.3,0.8-1,0.9-1.8,0.7c-0.7-0.2-1-0.8-0.8-1.5c0.7-2.2,1.4-4.3,2.1-6.5
    c0.3-0.8,1-1,1.7-0.8C58.7,11.8,58.8,12.5,58.7,13.5z"/>
    <path d="M65.8,26.8c-1.2-0.1-1.9-1.4-1.1-2.3c1.4-1.6,2.9-3,4.4-4.4c0.5-0.5,1.2-0.4,1.7,0.1c0.5,0.5,0.8,1.2,0.2,1.7
    c-1.5,1.6-3.1,3.1-4.7,4.7C66.2,26.7,65.9,26.7,65.8,26.8z"/>
    <path d="M28.3,19.8c0.4,0.1,0.8,0.2,1.2,0.5c1.3,1.3,2.6,2.6,3.9,3.9c0.6,0.6,0.8,1.3,0.2,2c-0.7,0.8-1.5,0.6-2.1,0
    c-1.3-1.3-2.6-2.6-3.9-3.9c-0.5-0.5-0.6-1.1-0.4-1.7C27.3,20.1,27.8,19.9,28.3,19.8z"/>
</svg>
