<svg xmlns="http://www.w3.org/2000/svg" viewBox="0 0 103.59 60.01">
    <path d="M4.48,52.93H0V46.57H2.29c0-.75-.07-1.49-.1-2.25H4.63a9.83,9.83,0,0,0,1.88-5.56H2.25a71.88,71.88,0,0,1,5-22.92H28.43v25.1H31L30.5,20.06l1.85-.39.27,1.63L34.45,21,33.07,12.1,52.88,0,88,3.47,91.79,27,63.33,39.26V15.66h-13L42.76,37l-6-1.48-1.29-8.3-1.81.24,2.18,13.5h8L52,18h9V40.94H79.14V39.67L92.67,35v5.94h6.94v5.63h4v6.36h-3.11v2H99.37a9.29,9.29,0,0,0,.13-1.5,8.5,8.5,0,0,0-4.64-7.48,8.24,8.24,0,0,0-3.7-.86,8.33,8.33,0,0,0-5.88,2.42l0,0A8.29,8.29,0,0,0,83,54.92H80.47a8.28,8.28,0,0,0,.13-1.5A8.5,8.5,0,0,0,76,45.94a8.24,8.24,0,0,0-3.7-.86,8.33,8.33,0,0,0-5.88,2.42l0,0a8.29,8.29,0,0,0-2.29,7.38H58.26v-2H30.88v.82h-6c0-.11,0-.22,0-.33a8.49,8.49,0,0,0-4.65-7.48,8.21,8.21,0,0,0-3.7-.86,8.31,8.31,0,0,0-5.87,2.42l0,0a8.36,8.36,0,0,0-2.43,5.88c0,.11,0,.22,0,.33H4.48v-.82Zm51-30.41a1.7,1.7,0,1,0,1.7,1.7,1.7,1.7,0,0,0-1.7-1.7ZM84.52,6.36,53.79,4.72,37.87,13.33,38.16,15,54.2,9l30.73-.28-.41-2.38ZM96,25.19l5.35-2.31L99.88,13.7,98.46,4.51l-6-.59L96,25.19ZM16.55,46.82a6.6,6.6,0,0,0-4.65,1.94h0a6.58,6.58,0,0,0,0,9.31h0A6.54,6.54,0,0,0,16.55,60a6.58,6.58,0,0,0,4.66-11.25h0a6.63,6.63,0,0,0-4.67-1.94Zm-2,4.62h0a2.79,2.79,0,0,0,0,3.94h0a2.79,2.79,0,0,0,3.94-3.94h0a2.78,2.78,0,0,0-2-.81,2.75,2.75,0,0,0-2,.8Zm57.67-4.62a6.62,6.62,0,0,0-4.66,1.94h0a6.55,6.55,0,0,0,0,9.31h0a6.58,6.58,0,1,0,9.31-9.31h0a6.58,6.58,0,0,0-4.66-1.94Zm-2,4.62h0a2.76,2.76,0,0,0-.8,2,2.8,2.8,0,0,0,.81,2h0a2.76,2.76,0,0,0,2,.81A2.77,2.77,0,0,0,75,53.42a2.76,2.76,0,0,0-.81-2h0a2.8,2.8,0,0,0-2-.81,2.76,2.76,0,0,0-2,.8Zm20.87-4.62a6.62,6.62,0,0,0-4.66,1.94h0a6.58,6.58,0,0,0,0,9.31h0a6.58,6.58,0,1,0,9.31-9.31h0a6.58,6.58,0,0,0-4.66-1.94Zm-2,4.62h0a2.76,2.76,0,0,0-.81,2,2.81,2.81,0,0,0,.82,2h0a2.79,2.79,0,0,0,3.94-3.94h0a2.8,2.8,0,0,0-3.93,0ZM18.57,36.18v2h.8l.77-.57h2.08l.41.57h1.16v-2ZM9.75,19.55A62.35,62.35,0,0,0,6.06,36.86H16.62l1.05-3.5h4.89V19.55Z"/>
</svg>