<?xml version="1.0" encoding="utf-8"?>
<!-- Generator: Adobe Illustrator 22.1.0, SVG Export Plug-In . SVG Version: 6.00 Build 0)  -->
<svg version="1.1" id="Layer_1" xmlns="http://www.w3.org/2000/svg" xmlns:xlink="http://www.w3.org/1999/xlink" x="0px" y="0px"
	 viewBox="0 0 100 100" style="enable-background:new 0 0 100 100;" xml:space="preserve">
<path d="M5.2,70.3H1v-6h2.2c0-0.7-0.1-1.4-0.1-2.1h2.3c1.1-1.5,1.7-3.4,1.8-5.2h-4c0.4-7.4,2-14.7,4.7-21.6h20V59h2.4l-0.5-19.7
	l1.7-0.4l0.3,1.5l1.7-0.3l-1.3-8.4l18.7-11.4L84,23.7l3.6,22.2L60.7,57.4V35.2H48.5l-7.1,20.1l-5.7-1.4l-1.2-7.8l-1.7,0.2L34.8,59
	h7.5L50,37.4h8.5V59h17.1v-1.2l12.8-4.4V59h6.5v5.3h3.8v6h-2.9v1.9h-1.1c0.1-0.5,0.1-0.9,0.1-1.4c0-3-1.7-5.7-4.4-7.1
	c-1.1-0.5-2.3-0.8-3.5-0.8c-2.1,0-4.1,0.8-5.5,2.3l0,0c-1.8,1.8-2.6,4.4-2.2,7h-2.4c0.1-0.5,0.1-0.9,0.1-1.4c0-3-1.7-5.7-4.3-7.1
	c-1.1-0.5-2.3-0.8-3.5-0.8c-2.1,0-4.1,0.8-5.5,2.3l0,0c-1.8,1.8-2.6,4.4-2.2,7h-5.5v-1.9H30.1v0.8h-5.7c0-0.1,0-0.2,0-0.3
	c0-3-1.7-5.7-4.4-7.1c-1.1-0.5-2.3-0.8-3.5-0.8c-2.1,0-4.1,0.8-5.5,2.3l0,0c-1.5,1.5-2.3,3.5-2.3,5.5c0,0.1,0,0.2,0,0.3H5.2V70.3
	L5.2,70.3z M53.3,41.7c-0.9,0-1.6,0.7-1.6,1.6s0.7,1.6,1.6,1.6c0.9,0,1.6-0.7,1.6-1.6S54.2,41.7,53.3,41.7L53.3,41.7z M80.7,26.4
	l-29-1.5l-15,8.1l0.3,1.6l15.1-5.7l29-0.3L80.7,26.4L80.7,26.4z M91.5,44.2l5-2.2l-1.4-8.7l-1.3-8.7l-5.7-0.6L91.5,44.2z M16.6,64.6
	c-1.6,0-3.2,0.7-4.4,1.8l0,0c-2.4,2.4-2.4,6.4,0,8.8c0,0,0,0,0,0l0,0c1.2,1.2,2.7,1.8,4.4,1.8c3.4,0,6.2-2.8,6.2-6.2
	c0-1.7-0.7-3.3-1.8-4.4l0,0C19.8,65.2,18.2,64.6,16.6,64.6L16.6,64.6z M14.7,68.9L14.7,68.9c-1,1-1,2.7,0,3.7l0,0
	c1.1,1,2.7,0.9,3.7-0.2c0.9-1,0.9-2.5,0-3.5l0,0c-0.5-0.5-1.2-0.8-1.9-0.8C15.8,68.1,15.2,68.4,14.7,68.9L14.7,68.9z M69.1,64.6
	c-1.6,0-3.2,0.7-4.4,1.8l0,0c-2.4,2.4-2.4,6.3,0,8.7c0,0,0,0,0,0l0,0c2.4,2.4,6.4,2.4,8.8,0c2.4-2.4,2.4-6.4,0-8.8l0,0
	C72.3,65.2,70.7,64.6,69.1,64.6L69.1,64.6z M67.2,68.9L67.2,68.9c-0.5,0.5-0.8,1.2-0.8,1.9c0,0.7,0.3,1.4,0.8,1.9l0,0
	c0.5,0.5,1.2,0.8,1.9,0.8c1.4,0,2.6-1.2,2.6-2.6c0,0,0,0,0-0.1c0-0.7-0.3-1.4-0.8-1.9l0,0c-0.5-0.5-1.2-0.8-1.9-0.8
	C68.4,68.1,67.7,68.4,67.2,68.9L67.2,68.9z M86.9,64.6c-1.6,0-3.2,0.7-4.4,1.8l0,0c-2.4,2.4-2.4,6.4,0,8.8c0,0,0,0,0,0l0,0
	c2.4,2.4,6.4,2.4,8.8,0c2.4-2.4,2.4-6.4,0-8.8l0,0C90.1,65.2,88.5,64.6,86.9,64.6L86.9,64.6z M85,68.9L85,68.9
	c-0.5,0.5-0.8,1.2-0.8,1.9c0,0.7,0.3,1.4,0.8,1.9l0,0c1.1,1,2.7,0.9,3.7-0.2c0.9-1,0.9-2.5,0-3.5l0,0C87.7,68,86.1,68,85,68.9
	L85,68.9z M18.5,54.5v1.9h0.8l0.7-0.5h2l0.4,0.5h1.1v-1.9H18.5z M10.2,38.9c-1.9,5.2-3.1,10.7-3.5,16.3h10l1-3.3h4.6v-13H10.2z"/>
</svg>
