
<svg xmlns="http://www.w3.org/2000/svg" x="0px" y="0px" class="cement-svg cement-trees" viewBox="0 0 100 100">
    <g class="opacityOne">
        <polygon points="67,58.4 66.5,59 60.6,67.7 72.4,67.7 84.2,67.7 78.3,59 77.8,58.4 82.6,58.4 77.5,51.6 76.4,50.2 
        81,50.2 76.7,44.5 75.3,42.6 78.1,42.6 75.2,38.3 72.4,33.9 69.5,38.3 66.7,42.6 69.5,42.6 68.1,44.5 63.8,50.2 68.4,50.2 
        67.3,51.6 62.2,58.4 		"/>
        <polygon points="72.4,67.7 84.2,67.7 78.3,59 77.8,58.3 82.6,58.3 77.5,51.6 76.4,50.2 81,50.2 76.7,44.5 75.3,42.6 
        78.1,42.6 75.2,38.3 72.4,33.9 		"/>
        <rect x="71" y="67.7" width="3.1" height="5.3"/>
    </g>
    <g class="opacityTwo">
        <polygon points="85.7,60.1 85.4,60.6 80.5,67.7 90.2,67.7 99.8,67.7 95,60.6 94.6,60.1 98.5,60.1 94.4,54.6 
        93.4,53.4 97.2,53.4 93.7,48.7 92.6,47.2 94.8,47.2 92.5,43.7 90.2,40.1 87.9,43.7 85.5,47.2 87.8,47.2 86.7,48.7 83.1,53.4 
        86.9,53.4 86,54.6 81.8,60.1 		"/>
        <polygon points="90.2,67.7 99.8,67.7 95,60.6 94.6,60.1 98.5,60.1 94.4,54.6 93.4,53.4 97.2,53.4 93.7,48.7 
        92.6,47.2 94.8,47.2 92.5,43.7 90.2,40.1 		"/>
        <rect x="89" y="67.7" width="2.5" height="5.3"/>
    </g>
    <g class="opacityTwo">
        <polygon points="5.3,60.1 4.9,60.6 0.1,67.7 9.7,67.7 19.4,67.7 14.6,60.6 14.2,60.1 18.1,60.1 13.9,54.6 13,53.4 
        16.8,53.4 13.3,48.7 12.1,47.2 14.4,47.2 12.1,43.7 9.7,40.1 7.4,43.7 5.1,47.2 7.3,47.2 6.2,48.7 2.7,53.4 6.5,53.4 5.6,54.6 
        1.4,60.1 		"/>
        <polygon class="st1" points="9.7,67.7 19.4,67.7 14.6,60.6 14.2,60.1 18.1,60.1 13.9,54.6 13,53.4 16.8,53.4 13.3,48.7 12.1,47.2 
        14.4,47.2 12.1,43.7 9.7,40.1 		"/>
        <rect x="8.6" y="67.7" width="2.5" height="5.3"/>
    </g>
    <g class="opacityOne">
        <polygon points="22.1,58.4 21.6,59 15.7,67.7 27.5,67.7 39.3,67.7 33.4,59 33,58.4 37.7,58.4 32.6,51.6 31.5,50.2 
        36.1,50.2 31.8,44.5 30.4,42.6 33.2,42.6 30.4,38.3 27.5,33.9 24.7,38.3 21.8,42.6 24.6,42.6 23.2,44.5 18.9,50.2 23.5,50.2 
        22.4,51.6 17.3,58.4 		"/>
        <polygon points="27.5,67.7 39.3,67.7 33.4,59 33,58.3 37.7,58.3 32.6,51.6 31.5,50.2 36.1,50.2 31.8,44.5 30.4,42.6 
        33.2,42.6 30.4,38.3 27.5,33.9 		"/>
        <rect x="26.1" y="67.7" width="3.1" height="5.3"/>
    </g>
    <g>
        <polygon points="42.9,55.5 42.3,56.4 34.6,67.7 50,67.7 65.3,67.7 57.6,56.4 57,55.5 63.2,55.5 56.6,46.8 55.1,44.9 
        61.1,44.9 55.5,37.5 53.7,35.1 57.4,35.1 53.7,29.5 50,23.9 46.3,29.5 42.6,35.1 46.2,35.1 44.4,37.5 38.8,44.9 44.8,44.9 
        43.3,46.8 36.7,55.5 		"/>
        <polygon points="50,67.7 65.3,67.7 57.6,56.4 57,55.5 63.2,55.5 56.6,46.8 55.1,44.9 61.1,44.9 55.5,37.5 53.7,35.1 
        57.4,35.1 53.7,29.5 50,23.9 		"/>
        <rect x="48.1" y="67.7" width="4" height="5.3"/>
    </g>
</svg>
